<svg width="94" height="94" viewBox="0 0 94 94" fill="none" xmlns="http://www.w3.org/2000/svg">
<path fill-rule="evenodd" clip-rule="evenodd" d="M8.12163 0.329668C6.16885 0.843991 4.68461 1.70463 3.21451 3.17554C1.72053 4.66998 0.878272 6.14162 0.362885 8.15719C0.008452 9.54409 0 10.3095 0 41.1349C0 71.9602 0.008452 72.7256 0.362885 74.1125C0.562609 74.8934 0.996233 76.0441 1.3266 76.6694C2.18172 78.2881 4.18429 80.2417 5.83573 81.0682C8.37115 82.3371 8.23335 82.3277 23.4592 82.27C36.8974 82.2189 37.0956 82.2128 37.5958 81.8391C38.56 81.1189 38.8608 80.5314 38.8608 79.369C38.8608 78.2065 38.56 77.6192 37.5959 76.8988C37.0967 76.5259 36.8674 76.5183 23.2757 76.4279C10.0099 76.3397 9.43371 76.3216 8.73367 75.9744C7.80248 75.5125 6.79467 74.5042 6.33293 73.5726C5.97776 72.8561 5.97152 72.2955 5.97152 41.1349C5.97152 9.97423 5.97776 9.41358 6.33293 8.69706C6.79467 7.76547 7.80248 6.75723 8.73367 6.29529C9.44712 5.94126 9.96637 5.93372 33.3486 5.93372H57.2347L57.9697 6.33169C58.9299 6.85171 59.9814 7.95425 60.3952 8.87481C60.7004 9.55383 60.7327 10.6099 60.8176 22.6694C60.9025 34.7448 60.9339 35.7661 61.2336 36.2234C62.675 38.4234 66.221 37.6401 66.6037 35.0372C66.668 34.5998 66.6917 28.5341 66.6565 21.5582C66.5859 7.58772 66.641 8.28016 65.4058 5.83171C64.2043 3.44979 61.7626 1.33975 59.2018 0.470105L57.9697 0.051552L33.7161 0.0140531C10.3164 -0.022159 9.41534 -0.0111299 8.12163 0.329668ZM13.7328 15.8435C12.8242 16.1722 12.5424 16.4233 12.0932 17.3045C11.4087 18.6464 11.8539 20.1177 13.2274 21.0527L13.8348 21.4663H23.5186H33.2024L33.8098 21.0527C34.6892 20.4541 35.1219 19.7824 35.2264 18.8543C35.3464 17.7892 34.8013 16.6939 33.8596 16.1082L33.1649 15.6761L23.7942 15.6349C16.2758 15.6018 14.287 15.6432 13.7328 15.8435ZM13.2274 31.8061C12.348 32.4048 11.9153 33.0765 11.8107 34.0046C11.6908 35.0696 12.2359 36.165 13.1776 36.7506L13.8723 37.1828L32.7055 37.2374C43.0638 37.2673 51.8967 37.2407 52.334 37.178C53.3675 37.0298 54.492 36.0429 54.7596 35.049C55.102 33.7763 54.4409 32.2666 53.2771 31.6646C52.8226 31.4295 50.1132 31.3925 33.2931 31.3925H13.8348L13.2274 31.8061ZM64.4924 43.4162C53.34 45.4002 44.9214 54.0688 43.3481 65.1887C43.071 67.1471 43.2222 71.8249 43.6224 73.6706C44.6785 78.5425 46.9093 82.7123 50.3564 86.2566C54.059 90.0639 58.2853 92.4072 63.5344 93.5636C66.1944 94.1494 71.0085 94.1448 73.6575 93.5536C78.9012 92.3835 82.8795 90.2221 86.5517 86.5485C90.2238 82.8747 92.3842 78.8947 93.5538 73.6488C94.1447 70.9986 94.1493 66.1824 93.5638 63.5213C92.765 59.8931 91.274 56.5246 89.1764 53.61C87.8666 51.79 84.6868 48.6971 82.9029 47.5078C80.1819 45.6939 77.0046 44.3377 73.7712 43.6098C71.9897 43.2087 66.323 43.0905 64.4924 43.4162ZM13.4956 47.2734C12.2793 47.8082 11.5794 49.2164 11.8398 50.6053C12.0009 51.4643 12.918 52.4799 13.7516 52.7225C14.2039 52.8543 18.1567 52.9001 25.8479 52.8628C37.1083 52.808 37.2797 52.8018 37.7909 52.4227C39.5948 51.0853 39.5948 48.8309 37.7909 47.4935C37.279 47.1139 37.1224 47.1084 25.6641 47.0681C16.2942 47.035 13.948 47.0746 13.4956 47.2734ZM72.0773 49.3129C78.9363 50.5096 84.7515 55.4894 87.0807 62.1612C89.2167 68.2796 88.1187 75.1886 84.1813 80.407C77.999 88.5999 66.431 90.5938 57.8499 84.9455C53.4157 82.0268 50.228 77.2075 49.3321 72.0679C47.4809 61.448 54.3693 51.4329 64.9747 49.3247C66.6851 48.9846 70.1629 48.9789 72.0773 49.3129ZM67.0647 55.3201C66.711 55.5572 66.2357 56.1197 66.0082 56.57C65.6163 57.3461 65.5948 57.6022 65.5948 61.4857V65.5826H61.4997C57.6178 65.5826 57.3618 65.6041 56.5861 65.9962C55.3815 66.605 54.8876 67.441 54.9769 68.7195C55.0611 69.9246 55.5537 70.7277 56.4779 71.1665C57.0014 71.4148 57.8146 71.4648 61.3387 71.4648H65.5708L65.6288 75.8305C65.6847 80.0428 65.702 80.2206 66.1187 80.8912C67.2512 82.7137 69.6656 82.7442 71.0037 80.9531C71.3552 80.4827 71.3892 80.1243 71.4745 76.0014L71.5663 71.5567L76.0091 71.4648C80.1302 71.3795 80.4885 71.3455 80.9587 70.9939C82.7491 69.6551 82.7186 67.2398 80.8968 66.1067C80.2265 65.6898 80.0488 65.6725 75.8383 65.6166L71.4745 65.5585V61.3247C71.4745 56.6377 71.3876 56.1962 70.3154 55.4324C69.4544 54.819 67.8921 54.7649 67.0647 55.3201Z" fill="#104781"/>
</svg>
