<svg width="16" height="16" viewBox="0 0 16 16" fill="none" xmlns="http://www.w3.org/2000/svg">
<path fill-rule="evenodd" clip-rule="evenodd" d="M0.421912 7.60852C0.294664 7.79789 0.264557 8.04356 0.342202 8.25858C0.379644 8.36227 0.409584 8.40663 0.509676 8.50672C0.744778 8.74189 0.525005 8.72814 3.99813 8.72507L7.0701 8.72237L7.07042 11.8221C7.0707 14.3411 7.07832 14.9427 7.1111 15.0334C7.16868 15.1926 7.36159 15.3878 7.519 15.4461C7.65966 15.4981 7.85664 15.5014 8.00488 15.4542C8.17204 15.4009 8.35503 15.2338 8.43434 15.062C8.49006 14.9412 8.49213 14.8331 8.49612 11.8294L8.50027 8.72181L11.5923 8.71744C14.0758 8.71391 14.7064 8.70522 14.7966 8.67326C14.8909 8.63987 14.9322 8.61019 15.0533 8.48869C15.1797 8.36189 15.2022 8.3294 15.2342 8.22703C15.2785 8.08495 15.2731 7.87391 15.2215 7.73369C15.1663 7.58359 14.9675 7.38915 14.8117 7.3328C14.721 7.30001 14.1194 7.2924 11.6004 7.29212L8.50068 7.2918L8.50338 4.21982C8.50644 0.746699 8.52019 0.966472 8.28503 0.73137C8.18549 0.631826 8.14059 0.601415 8.0401 0.565385C7.65598 0.42767 7.23942 0.629124 7.10941 1.01548C7.08916 1.07563 7.07725 2.17364 7.07485 4.20009L7.07121 7.29291L3.97839 7.29655C1.95195 7.29895 0.85394 7.31085 0.793788 7.3311C0.716739 7.35704 0.505628 7.48418 0.482279 7.51874C0.478458 7.52438 0.451274 7.56479 0.421912 7.60852Z" fill="#104781"/>
</svg>
