<svg width="18" height="18" viewBox="0 0 18 18" fill="none" xmlns="http://www.w3.org/2000/svg">
<path fill-rule="evenodd" clip-rule="evenodd" d="M0.941157 0.035218C0.574807 0.107094 0.255713 0.356516 0.0967637 0.69515C0.0201063 0.858454 0.00341565 0.944431 0.00341565 1.17606C0.00334523 1.7202 -0.235043 1.44999 3.7872 5.46514L7.34485 9.01655L3.75861 12.6035C0.844217 15.5186 0.156907 16.2235 0.0898973 16.3664C-0.0277121 16.6173 -0.0303178 17.0663 0.0844042 17.3158C0.186908 17.5388 0.410999 17.7706 0.637204 17.8874C0.892282 18.0192 1.2974 18.0375 1.58794 17.9305C1.79214 17.8553 1.91964 17.7326 5.39975 14.2617L9.00033 10.6707L12.5831 14.2434C15.4608 17.1129 16.2005 17.8325 16.3419 17.9C16.4897 17.9704 16.5718 17.9839 16.8525 17.9834C17.1455 17.983 17.2091 17.9714 17.3645 17.8899C17.5802 17.7768 17.8181 17.5264 17.9207 17.3044C18.0305 17.0669 18.0255 16.6119 17.9104 16.3664C17.8434 16.2235 17.1561 15.5186 14.2417 12.6035L10.6555 9.01655L14.2131 5.46514C18.2353 1.44999 17.997 1.7202 17.9969 1.17606C17.9969 0.945697 17.9801 0.85856 17.9055 0.700601C17.6204 0.0967911 16.9053 -0.152103 16.3079 0.144509C16.2148 0.19068 14.9306 1.44739 12.583 3.78938L9.00015 7.36382L5.41729 3.78938C3.06975 1.44739 1.78548 0.19068 1.69245 0.144509C1.57329 0.0853626 1.1819 -0.0117969 1.1149 0.0011788C1.10394 0.00328867 1.02574 0.0185852 0.941157 0.035218Z" fill="#104781"/>
</svg>
