<svg width="67" height="82" viewBox="0 0 67 82" fill="none" xmlns="http://www.w3.org/2000/svg">
<path fill-rule="evenodd" clip-rule="evenodd" d="M7.57841 0.111151C4.22961 0.759719 1.52068 2.98567 0.398211 6.01179L0 7.08498V41.0133V74.9416L0.393388 76.0018C1.37979 78.6591 3.58269 80.7141 6.42614 81.6291L7.57841 82H33.5H59.4216L60.5739 81.6291C63.4173 80.7141 65.6202 78.6591 66.6066 76.0018L67 74.9416V48.3123V21.683L66.5525 20.5437C66.3064 19.9171 65.8171 19.0005 65.4654 18.507C64.6815 17.4071 47.7646 2.43271 46.1897 1.4447C45.6046 1.07767 44.6222 0.608445 44.0064 0.401988L42.8869 0.0266106L25.5771 0.00222717C16.0567 -0.0112479 7.95733 0.0378399 7.57841 0.111151ZM40.2539 12.2621L40.3033 19.7654L40.8648 20.8273C41.5181 22.063 42.4522 22.9116 43.8135 23.5061L44.7815 23.9288L53.3503 23.9746L61.919 24.0204V48.931C61.919 76.9095 62.0203 74.7756 60.6317 76.0687C59.2475 77.3582 61.2935 77.2677 33.5 77.2677C5.70654 77.2677 7.75254 77.3582 6.36827 76.0687C4.96713 74.7639 5.08098 77.8635 5.08098 41.0133C5.08098 4.15608 4.96661 7.26321 6.37137 5.955C7.69587 4.72123 6.71309 4.78572 24.4082 4.7716L40.2043 4.75893L40.2539 12.2621ZM53.3503 14.1198C56.4526 16.853 58.991 19.1133 58.991 19.1428C58.991 19.1723 56.0513 19.1965 52.4582 19.1965C46.7491 19.1965 45.8916 19.1647 45.6549 18.9445C45.4189 18.7246 45.3843 17.9528 45.3843 12.9104V7.12846L46.5469 8.13957C47.1863 8.69558 50.2479 11.3867 53.3503 14.1198ZM12.7905 32.3607C12.0633 32.7183 11.4537 33.6647 11.4537 34.4362C11.4537 35.2322 12.0629 36.1563 12.8271 36.5195C13.4965 36.8375 13.8034 36.8424 32.9833 36.8424C52.1632 36.8424 52.4701 36.8375 53.1394 36.5195C53.9037 36.1563 54.5129 35.2322 54.5129 34.4362C54.5129 33.6402 53.9037 32.716 53.1394 32.3528C52.4698 32.0347 52.171 32.0301 32.9471 32.037C13.86 32.0439 13.4203 32.0509 12.7905 32.3607ZM12.7905 45.1941C12.0633 45.5517 11.4537 46.4981 11.4537 47.2696C11.4537 48.0656 12.0629 48.9897 12.8271 49.3529C13.4965 49.6709 13.8034 49.6759 32.9833 49.6759C52.1632 49.6759 52.4701 49.6709 53.1394 49.3529C53.9037 48.9897 54.5129 48.0656 54.5129 47.2696C54.5129 46.4736 53.9037 45.5494 53.1394 45.1862C52.4698 44.8681 52.171 44.8635 32.9471 44.8704C13.86 44.8773 13.4203 44.8843 12.7905 45.1941ZM12.7905 58.0248C12.0634 58.3854 11.4537 59.3335 11.4537 60.103C11.4537 60.9043 12.0628 61.8232 12.838 62.1915C13.5052 62.5085 13.7657 62.5181 20.4879 62.4743C27.2082 62.4307 27.4633 62.4177 27.9223 62.0983C28.7761 61.5044 29.0882 60.9704 29.0882 60.103C29.0882 59.2356 28.7761 58.7016 27.9223 58.1077C27.4624 57.7879 27.217 57.7758 20.4407 57.7412C13.7345 57.7068 13.4069 57.7189 12.7905 58.0248Z" fill="#104781"/>
</svg>
