<svg width="146" height="22" viewBox="0 0 146 22" fill="none" xmlns="http://www.w3.org/2000/svg">
<path fill-rule="evenodd" clip-rule="evenodd" d="M0 5.475L9.49024 0L18.98 5.475V16.425L9.49024 21.9L0.000488857 16.425L0 5.475ZM3.25061 14.4887L9.49024 18.0886L15.7298 14.4888V7.41121L9.4902 3.81135L3.25029 7.41121L3.25061 14.4887Z" fill="white"/>
<path fill-rule="evenodd" clip-rule="evenodd" d="M15.382 19.6783L18.9917 21.9L28.4681 16.425V5.475L18.9917 0L15.3281 2.0708L18.5525 4.03985L18.9744 3.80136L25.2225 7.41121V14.4888L19.0434 18.0587L18.4719 17.707L15.382 19.6783Z" fill="white"/>
<path d="M36.3267 0.175785V10.2835H34.5066V0.175785H36.3267ZM39.4427 0.175785V1.66997H31.3906V0.175785H39.4427Z" fill="white"/>
<path d="M42.4026 2.91512C43.5578 2.91512 44.3877 3.1202 44.8925 3.53037C45.3973 3.93077 45.6545 4.52649 45.6642 5.31753C45.6642 5.97184 45.5089 6.4699 45.1983 6.81171C44.8974 7.14375 44.3829 7.30977 43.6548 7.30977H39.5633V6.2111H43.1743C43.485 6.2111 43.6888 6.12321 43.7859 5.94743C43.8927 5.77164 43.9412 5.55679 43.9315 5.30288C43.9315 4.90248 43.8199 4.62415 43.5966 4.46789C43.383 4.31164 43.0045 4.23351 42.4609 4.23351C42.0143 4.23351 41.6649 4.29699 41.4125 4.42395C41.1601 4.5509 40.9805 4.7804 40.8737 5.11244C40.7767 5.44448 40.7281 5.92301 40.7281 6.54803C40.7281 7.21211 40.7912 7.72482 40.9174 8.08615C41.0436 8.44749 41.2475 8.69652 41.529 8.83325C41.8202 8.9602 42.2133 9.02368 42.7084 9.02368C43.0676 9.02368 43.485 9.00903 43.9606 8.97973C44.4363 8.95044 44.8876 8.91137 45.3148 8.86254L45.4895 9.9905C45.2371 10.0979 44.9362 10.1858 44.5867 10.2542C44.2373 10.3225 43.8781 10.3714 43.5092 10.4007C43.1501 10.4397 42.8103 10.4593 42.49 10.4593C41.626 10.4593 40.9271 10.3323 40.3932 10.0784C39.8691 9.81472 39.4856 9.40455 39.2429 8.84789C39.01 8.29124 38.8935 7.57345 38.8935 6.69452C38.8935 5.74722 39.0148 5.00013 39.2575 4.45324C39.5002 3.89659 39.8739 3.50107 40.3787 3.26669C40.8932 3.03231 41.5678 2.91512 42.4026 2.91512Z" fill="white"/>
<path d="M49.0235 3.0909V10.2835H47.2763V3.0909H49.0235ZM52.3288 5.85953V7.10468H48.9362V5.85953H52.3288ZM53.9305 3.0909V10.2835H52.1978V3.0909H53.9305Z" fill="white"/>
<path d="M62.1679 3.0909V4.33605H59.4741C58.9888 4.33605 58.7218 4.58997 58.6733 5.09779C58.5957 5.84 58.484 6.51385 58.3384 7.11933C58.2025 7.72482 58.0132 8.28636 57.7705 8.80395C57.5376 9.31177 57.2367 9.80495 56.8678 10.2835H55.47C55.8291 9.69753 56.1155 9.10181 56.329 8.49632C56.5523 7.89084 56.7222 7.28047 56.8387 6.66522C56.9649 6.0402 57.0571 5.4103 57.1153 4.77552C57.1638 4.21886 57.3434 3.79893 57.6541 3.51572C57.9647 3.23251 58.4161 3.0909 59.0082 3.0909H62.1679ZM56.5766 10.2102L56.431 12.3636H55.2807V10.2102H56.5766ZM63.391 8.99438V10.2835H55.2807V8.99438H63.391ZM63.391 10.2102V12.3636H62.2261L62.0951 10.2102H63.391ZM62.3426 3.0909V10.2835H60.6681V3.0909H62.3426Z" fill="white"/>
<path d="M67.9976 2.91512C69.1528 2.91512 69.9827 3.1202 70.4875 3.53037C70.9923 3.93077 71.2495 4.52649 71.2592 5.31753C71.2592 5.97184 71.1039 6.4699 70.7933 6.81171C70.4924 7.14375 69.9779 7.30977 69.2498 7.30977H65.1583V6.2111H68.7693C69.08 6.2111 69.2838 6.12321 69.3809 5.94743C69.4877 5.77164 69.5362 5.55679 69.5265 5.30288C69.5265 4.90248 69.4149 4.62415 69.1916 4.46789C68.978 4.31164 68.5995 4.23351 68.0559 4.23351C67.6093 4.23351 67.2599 4.29699 67.0075 4.42395C66.7551 4.5509 66.5755 4.7804 66.4688 5.11244C66.3717 5.44448 66.3231 5.92301 66.3231 6.54803C66.3231 7.21211 66.3862 7.72482 66.5124 8.08615C66.6386 8.44749 66.8425 8.69652 67.124 8.83325C67.4152 8.9602 67.8083 9.02368 68.3034 9.02368C68.6626 9.02368 69.08 9.00903 69.5556 8.97973C70.0313 8.95044 70.4827 8.91137 70.9098 8.86254L71.0845 9.9905C70.8321 10.0979 70.5312 10.1858 70.1817 10.2542C69.8323 10.3225 69.4731 10.3714 69.1042 10.4007C68.7451 10.4397 68.4053 10.4593 68.085 10.4593C67.2211 10.4593 66.5221 10.3323 65.9882 10.0784C65.4641 9.81472 65.0806 9.40455 64.838 8.84789C64.605 8.29124 64.4885 7.57345 64.4885 6.69452C64.4885 5.74722 64.6098 5.00013 64.8525 4.45324C65.0952 3.89659 65.4689 3.50107 65.9737 3.26669C66.4882 3.03231 67.1628 2.91512 67.9976 2.91512Z" fill="white"/>
<path d="M77.3123 2.91512C78.215 2.91512 78.8557 3.24227 79.2343 3.89659C79.6226 4.5509 79.8167 5.49819 79.8167 6.73846C79.8167 7.68575 79.7148 8.43284 79.5109 8.97973C79.3168 9.51686 79.0159 9.90261 78.6082 10.137C78.2102 10.3616 77.7103 10.4739 77.1084 10.4739C76.6231 10.4739 76.1474 10.4056 75.6815 10.2688C75.2155 10.1223 74.7933 9.89773 74.4147 9.59498L74.5312 8.71605C74.9098 8.82348 75.2447 8.91625 75.5359 8.99438C75.8368 9.07251 76.1717 9.11157 76.5406 9.11157C76.89 9.11157 77.1715 9.05298 77.3851 8.93579C77.5986 8.80883 77.754 8.57445 77.851 8.23264C77.9481 7.89084 77.9966 7.39766 77.9966 6.75311C77.9966 6.11833 77.9529 5.62515 77.8656 5.27358C77.7782 4.92201 77.6326 4.67786 77.4288 4.54114C77.2346 4.39465 76.9774 4.3214 76.657 4.3214C76.3076 4.3214 75.9775 4.39953 75.6669 4.55579C75.3563 4.70227 75.002 4.92201 74.604 5.21498L74.3856 4.27746C74.6088 4.01378 74.8758 3.7794 75.1864 3.57431C75.5067 3.36923 75.8465 3.20809 76.2057 3.0909C76.5745 2.97371 76.9434 2.91512 77.3123 2.91512ZM74.3128 3.0909L74.5021 4.48254L74.6477 4.68763V9.33131L74.5749 9.50709C74.604 9.7903 74.6234 10.0735 74.6331 10.3567C74.6525 10.6497 74.6574 10.9476 74.6477 11.2503V13.14H72.8858V3.0909H74.3128Z" fill="white"/>
<path d="M85.4186 0C85.8748 0 86.2631 0.0146485 86.5835 0.0439458C86.9038 0.0634779 87.1999 0.0976584 87.4717 0.146488C87.7435 0.185551 88.025 0.244147 88.3162 0.322274L88.156 1.68462C87.8551 1.66508 87.5736 1.65043 87.3115 1.64067C87.0494 1.62114 86.7679 1.60649 86.467 1.59672C86.1758 1.58696 85.8263 1.58207 85.4186 1.58207C84.8556 1.58207 84.4139 1.69438 84.0936 1.919C83.7733 2.14361 83.5451 2.5196 83.4092 3.04696C83.283 3.57431 83.2199 4.30187 83.2199 5.22963C83.2199 6.15739 83.283 6.88495 83.4092 7.41231C83.5451 7.93967 83.7733 8.31565 84.0936 8.54027C84.4139 8.76488 84.8556 8.87719 85.4186 8.87719C86.069 8.87719 86.6126 8.86742 87.0494 8.84789C87.4959 8.8186 87.9328 8.77953 88.3599 8.7307L88.52 10.0784C88.0832 10.2151 87.6318 10.3128 87.1659 10.3714C86.7 10.43 86.1175 10.4593 85.4186 10.4593C84.4091 10.4593 83.6034 10.2932 83.0015 9.9612C82.3997 9.6194 81.9629 9.06763 81.6911 8.30589C81.429 7.54415 81.2979 6.51873 81.2979 5.22963C81.2979 3.94054 81.429 2.91512 81.6911 2.15338C81.9629 1.39164 82.3997 0.844749 83.0015 0.512709C83.6034 0.170903 84.4091 0 85.4186 0Z" fill="white"/>
<path d="M93.5301 3.0909V10.2835H91.7682V3.0909H93.5301ZM95.9908 3.0909V4.48254H89.2929V3.0909H95.9908Z" fill="white"/>
<path d="M100.926 2.91512C101.498 2.91512 101.979 2.99324 102.367 3.1495C102.755 3.29599 103.051 3.5499 103.255 3.91124C103.459 4.27258 103.561 4.77064 103.561 5.40542V10.2835H102.163L101.916 8.7307L101.799 8.52562V5.39077C101.789 5.0099 101.697 4.73646 101.523 4.57044C101.348 4.39465 101.018 4.30676 100.532 4.30676C100.154 4.30676 99.683 4.3214 99.12 4.3507C98.5667 4.38 98.0085 4.41906 97.4455 4.46789L97.2854 3.25204C97.6251 3.18368 98.0085 3.12508 98.4357 3.07625C98.8725 3.02743 99.3045 2.98836 99.7316 2.95906C100.168 2.92977 100.566 2.91512 100.926 2.91512ZM102.804 5.85953L102.789 6.95819H99.5277C99.2268 6.96796 99.0132 7.04609 98.887 7.19258C98.7609 7.33906 98.6978 7.53927 98.6978 7.79318V8.1887C98.6978 8.48167 98.7754 8.70629 98.9307 8.86254C99.0957 9.00903 99.3384 9.08228 99.6588 9.08228C99.9209 9.08228 100.212 9.02856 100.532 8.92114C100.853 8.81371 101.168 8.65746 101.479 8.45238C101.799 8.24729 102.086 8.00314 102.338 7.71993V8.64281C102.251 8.7893 102.115 8.96509 101.93 9.17017C101.746 9.36549 101.518 9.5608 101.246 9.75612C100.984 9.95144 100.678 10.1126 100.329 10.2395C99.9791 10.3665 99.5957 10.43 99.1783 10.43C98.7511 10.43 98.3677 10.3567 98.028 10.2102C97.6882 10.054 97.4213 9.82937 97.2271 9.53639C97.0427 9.23365 96.9505 8.86254 96.9505 8.42308V7.66134C96.9505 7.09492 97.1349 6.65545 97.5038 6.34294C97.8727 6.02067 98.3871 5.85953 99.0472 5.85953H102.804Z" fill="white"/>
<path d="M107.281 3.0909V10.2835H105.533V3.0909H107.281ZM110.586 5.85953V7.10468H107.193V5.85953H110.586ZM112.188 3.0909V10.2835H110.455V3.0909H112.188Z" fill="white"/>
<path d="M120.425 3.0909V4.33605H117.731C117.246 4.33605 116.979 4.58997 116.93 5.09779C116.853 5.84 116.741 6.51385 116.595 7.11933C116.46 7.72482 116.27 8.28636 116.028 8.80395C115.795 9.31177 115.494 9.80495 115.125 10.2835H113.727C114.086 9.69753 114.373 9.10181 114.586 8.49632C114.809 7.89084 114.979 7.28047 115.096 6.66522C115.222 6.0402 115.314 5.4103 115.372 4.77552C115.421 4.21886 115.601 3.79893 115.911 3.51572C116.222 3.23251 116.673 3.0909 117.265 3.0909H120.425ZM114.834 10.2102L114.688 12.3636H113.538V10.2102H114.834ZM121.648 8.99438V10.2835H113.538V8.99438H121.648ZM121.648 10.2102V12.3636H120.483L120.352 10.2102H121.648ZM120.6 3.0909V10.2835H118.925V3.0909H120.6Z" fill="white"/>
<path d="M126.72 2.91512C127.292 2.91512 127.773 2.99324 128.161 3.1495C128.549 3.29599 128.845 3.5499 129.049 3.91124C129.253 4.27258 129.355 4.77064 129.355 5.40542V10.2835H127.957L127.71 8.7307L127.593 8.52562V5.39077C127.584 5.0099 127.491 4.73646 127.317 4.57044C127.142 4.39465 126.812 4.30676 126.326 4.30676C125.948 4.30676 125.477 4.3214 124.914 4.3507C124.361 4.38 123.803 4.41906 123.24 4.46789L123.079 3.25204C123.419 3.18368 123.803 3.12508 124.23 3.07625C124.667 3.02743 125.099 2.98836 125.526 2.95906C125.962 2.92977 126.36 2.91512 126.72 2.91512ZM128.598 5.85953L128.583 6.95819H125.322C125.021 6.96796 124.807 7.04609 124.681 7.19258C124.555 7.33906 124.492 7.53927 124.492 7.79318V8.1887C124.492 8.48167 124.569 8.70629 124.725 8.86254C124.89 9.00903 125.133 9.08228 125.453 9.08228C125.715 9.08228 126.006 9.02856 126.326 8.92114C126.647 8.81371 126.962 8.65746 127.273 8.45238C127.593 8.24729 127.88 8.00314 128.132 7.71993V8.64281C128.045 8.7893 127.909 8.96509 127.724 9.17017C127.54 9.36549 127.312 9.5608 127.04 9.75612C126.778 9.95144 126.472 10.1126 126.123 10.2395C125.773 10.3665 125.39 10.43 124.972 10.43C124.545 10.43 124.162 10.3567 123.822 10.2102C123.482 10.054 123.215 9.82937 123.021 9.53639C122.837 9.23365 122.745 8.86254 122.745 8.42308V7.66134C122.745 7.09492 122.929 6.65545 123.298 6.34294C123.667 6.02067 124.181 5.85953 124.841 5.85953H128.598Z" fill="white"/>
<path d="M135.768 2.91512C136.671 2.91512 137.312 3.24227 137.69 3.89659C138.079 4.5509 138.273 5.49819 138.273 6.73846C138.273 7.68575 138.171 8.43284 137.967 8.97973C137.773 9.51686 137.472 9.90261 137.064 10.137C136.666 10.3616 136.166 10.4739 135.565 10.4739C135.079 10.4739 134.604 10.4056 134.138 10.2688C133.672 10.1223 133.249 9.89773 132.871 9.59498L132.987 8.71605C133.366 8.82348 133.701 8.91625 133.992 8.99438C134.293 9.07251 134.628 9.11157 134.997 9.11157C135.346 9.11157 135.628 9.05298 135.841 8.93579C136.055 8.80883 136.21 8.57445 136.307 8.23264C136.404 7.89084 136.453 7.39766 136.453 6.75311C136.453 6.11833 136.409 5.62515 136.322 5.27358C136.234 4.92201 136.089 4.67786 135.885 4.54114C135.691 4.39465 135.434 4.3214 135.113 4.3214C134.764 4.3214 134.434 4.39953 134.123 4.55579C133.812 4.70227 133.458 4.92201 133.06 5.21498L132.842 4.27746C133.065 4.01378 133.332 3.7794 133.643 3.57431C133.963 3.36923 134.303 3.20809 134.662 3.0909C135.031 2.97371 135.4 2.91512 135.768 2.91512ZM132.769 3.0909L132.958 4.48254L133.104 4.68763V9.33131L133.031 9.50709C133.06 9.7903 133.08 10.0735 133.089 10.3567C133.109 10.6497 133.114 10.9476 133.104 11.2503V13.14H131.342V3.0909H132.769Z" fill="white"/>
<path d="M143.54 3.0909V10.2835H141.778V3.0909H143.54ZM146.001 3.0909V4.48254H139.303V3.0909H146.001Z" fill="white"/>
<path d="M34.3422 14.6001C34.8617 14.6001 35.2728 14.6944 35.5755 14.883C35.8832 15.0663 36.1026 15.3681 36.2338 15.7885C36.37 16.2088 36.4381 16.7747 36.4381 17.4861C36.4381 18.1976 36.37 18.7634 36.2338 19.1838C36.1026 19.6042 35.8832 19.9087 35.5755 20.0973C35.2728 20.2806 34.8617 20.3722 34.3422 20.3722C34.0042 20.3722 33.7242 20.356 33.5023 20.3237C33.2803 20.2967 33.0634 20.2509 32.8516 20.1863L32.9197 19.6446C33.1265 19.677 33.3358 19.7012 33.5477 19.7174C33.7595 19.7282 34.0244 19.7335 34.3422 19.7335C34.6953 19.7335 34.9752 19.6635 35.182 19.5234C35.3889 19.3832 35.5351 19.1515 35.6209 18.8281C35.7117 18.4994 35.7546 18.052 35.7495 17.4861C35.7546 16.9203 35.7117 16.4756 35.6209 16.1523C35.5351 15.8235 35.3889 15.5891 35.182 15.4489C34.9752 15.3088 34.6953 15.2387 34.3422 15.2387C34.1404 15.2387 33.9638 15.2414 33.8125 15.2468C33.6662 15.2522 33.5275 15.2603 33.3963 15.2711C33.2652 15.2765 33.124 15.2899 32.9726 15.3115L32.897 14.7618C33.0432 14.7241 33.1845 14.6944 33.3207 14.6729C33.4569 14.6459 33.6057 14.627 33.7671 14.6163C33.9336 14.6055 34.1253 14.6001 34.3422 14.6001ZM36.2262 17.0334V17.5993L33.5098 17.5912V17.0415L36.2262 17.0334Z" fill="white"/>
<path d="M40.2466 16.3382V16.8798H38.8997C38.7434 16.8798 38.6299 16.9176 38.5592 16.993C38.4937 17.0631 38.4483 17.1897 38.423 17.373C38.3978 17.6101 38.3676 17.8526 38.3322 18.1005C38.302 18.3485 38.2667 18.5883 38.2263 18.82C38.186 19.0518 38.133 19.2593 38.0674 19.4425C38.0069 19.6311 37.9236 19.7901 37.8177 19.9195C37.7118 20.0488 37.5832 20.1458 37.4318 20.2105C37.2855 20.2752 37.1115 20.3102 36.9097 20.3156L36.8416 19.7901C36.9778 19.7524 37.0863 19.7093 37.167 19.6608C37.2528 19.6123 37.3183 19.553 37.3637 19.4829C37.4142 19.4129 37.457 19.332 37.4924 19.2404C37.5378 19.1111 37.5781 18.9629 37.6134 18.7958C37.6487 18.6287 37.679 18.4535 37.7042 18.2703C37.7294 18.0871 37.7496 17.9092 37.7648 17.7368C37.7849 17.5589 37.8026 17.3999 37.8177 17.2598C37.853 16.958 37.9438 16.7289 38.0901 16.5726C38.2414 16.4163 38.471 16.3382 38.7787 16.3382H40.2466ZM40.3449 16.3382V20.2752H39.7018V16.3382H40.3449Z" fill="white"/>
<path d="M42.9064 16.2412C43.4612 16.2412 43.8623 16.349 44.1094 16.5645C44.3616 16.7801 44.4903 17.1008 44.4953 17.5266C44.4953 17.8769 44.4247 18.1517 44.2835 18.3511C44.1473 18.5452 43.9253 18.6422 43.6176 18.6422H41.4612V18.1086H43.4511C43.6126 18.1086 43.7185 18.0493 43.7689 17.9308C43.8244 17.8068 43.8496 17.6721 43.8446 17.5266C43.8446 17.2733 43.7765 17.0927 43.6403 16.9849C43.5041 16.8771 43.2695 16.8232 42.9366 16.8232C42.6693 16.8232 42.4574 16.8664 42.301 16.9526C42.1497 17.0334 42.0413 17.1789 41.9757 17.3891C41.9151 17.5939 41.8849 17.8823 41.8849 18.2541C41.8849 18.6745 41.9227 18.9952 41.9984 19.2162C42.0791 19.4371 42.2052 19.588 42.3767 19.6689C42.5482 19.7497 42.7752 19.7901 43.0577 19.7901C43.2595 19.7901 43.4764 19.782 43.7084 19.7659C43.9455 19.7443 44.1573 19.7201 44.344 19.6931L44.4045 20.1539C44.2935 20.2024 44.1523 20.2428 43.9808 20.2752C43.8093 20.3075 43.6327 20.3318 43.4511 20.3479C43.2746 20.3641 43.1157 20.3722 42.9745 20.3722C42.5558 20.3722 42.2153 20.3048 41.953 20.1701C41.6957 20.03 41.5091 19.809 41.3931 19.5072C41.277 19.2 41.219 18.7958 41.219 18.2946C41.219 17.7772 41.277 17.3703 41.3931 17.0739C41.5141 16.772 41.6982 16.5592 41.9454 16.4352C42.1926 16.3059 42.5129 16.2412 42.9064 16.2412Z" fill="white"/>
<path d="M48.4226 16.3382C48.3419 16.5699 48.2637 16.7828 48.1881 16.9768C48.1174 17.1655 48.0443 17.3325 47.9686 17.4781C47.898 17.6236 47.8173 17.7475 47.7265 17.8499C47.6408 17.9523 47.5399 18.0359 47.4238 18.1005C47.3078 18.1598 47.1716 18.1976 47.0153 18.2137V18.238C47.1817 18.2541 47.3255 18.2919 47.4465 18.3511C47.5676 18.4104 47.6735 18.494 47.7643 18.6018C47.8602 18.7042 47.9459 18.8335 48.0216 18.9898C48.1023 19.1461 48.183 19.332 48.2637 19.5476C48.3444 19.7578 48.4327 20.0003 48.5286 20.2752H47.8551C47.7643 20.0219 47.6811 19.7982 47.6054 19.6042C47.5298 19.4048 47.4541 19.235 47.3784 19.0949C47.3078 18.9548 47.2296 18.8416 47.1439 18.7554C47.0581 18.6637 46.9572 18.5991 46.8412 18.5613C46.7303 18.5182 46.5991 18.4967 46.4478 18.4967V17.9631C46.6294 17.9631 46.7832 17.9281 46.9093 17.858C47.0354 17.7826 47.1439 17.6748 47.2347 17.5346C47.3305 17.3945 47.4188 17.2248 47.4995 17.0253C47.5802 16.8259 47.666 16.5969 47.7568 16.3382H48.4226ZM45.9711 16.3382V17.5104C45.9711 17.629 45.9635 17.7475 45.9484 17.8661C45.9332 17.9847 45.9105 18.1005 45.8803 18.2137C45.9105 18.3269 45.9332 18.4401 45.9484 18.5533C45.9635 18.6664 45.9711 18.7742 45.9711 18.8766V20.2752H45.3279V16.3382H45.9711ZM46.6899 17.9631V18.4967H45.7819V17.9631H46.6899Z" fill="white"/>
<path d="M50.8146 16.3382V20.2752H50.1715V16.3382H50.8146ZM52.1463 16.3382V16.9041H48.8322V16.3382H52.1463Z" fill="white"/>
<path d="M54.9023 16.2412C55.3563 16.2412 55.6817 16.419 55.8784 16.7747C56.0751 17.1251 56.1735 17.6424 56.1735 18.3269C56.1735 18.8335 56.123 19.2377 56.0222 19.5395C55.9213 19.8359 55.7674 20.0488 55.5606 20.1782C55.3538 20.3075 55.094 20.3722 54.7812 20.3722C54.5391 20.3722 54.2995 20.3372 54.0624 20.2671C53.8253 20.197 53.5984 20.0892 53.3814 19.9437L53.4193 19.5314C53.6564 19.6015 53.8632 19.6608 54.0397 19.7093C54.2213 19.7524 54.413 19.774 54.6148 19.774C54.8317 19.774 55.0032 19.7335 55.1293 19.6527C55.2605 19.5719 55.3563 19.4263 55.4168 19.2162C55.4774 19.006 55.5076 18.7095 55.5076 18.3269C55.5076 17.955 55.4799 17.6613 55.4244 17.4457C55.374 17.2301 55.2882 17.0765 55.1671 16.9849C55.0511 16.8879 54.8947 16.8394 54.698 16.8394C54.4962 16.8394 54.297 16.8906 54.1003 16.993C53.9035 17.0954 53.674 17.2517 53.4117 17.4619L53.3436 17.0011C53.4798 16.8448 53.6337 16.7101 53.8052 16.5969C53.9767 16.4837 54.1558 16.3975 54.3424 16.3382C54.5341 16.2735 54.7207 16.2412 54.9023 16.2412ZM53.3209 16.3382L53.3966 17.1547L53.4344 17.2598V19.782L53.4042 19.8791C53.4193 20.03 53.4294 20.1755 53.4344 20.3156C53.4395 20.4557 53.4395 20.6039 53.4344 20.7602V21.9001H52.7988V16.3382H53.3209Z" fill="white"/>
<path d="M58.6175 16.2412C59.0412 16.2412 59.3792 16.3086 59.6314 16.4433C59.8836 16.578 60.0652 16.799 60.1762 17.1062C60.2922 17.408 60.3502 17.8095 60.3502 18.3107C60.3502 18.8119 60.2922 19.2162 60.1762 19.5234C60.0652 19.8252 59.8836 20.0434 59.6314 20.1782C59.3792 20.3129 59.0412 20.3803 58.6175 20.3803C58.1938 20.3803 57.8533 20.3129 57.596 20.1782C57.3438 20.0434 57.1597 19.8252 57.0437 19.5234C56.9327 19.2162 56.8772 18.8119 56.8772 18.3107C56.8772 17.8095 56.9327 17.408 57.0437 17.1062C57.1597 16.799 57.3438 16.578 57.596 16.4433C57.8533 16.3086 58.1938 16.2412 58.6175 16.2412ZM58.6175 16.8232C58.3502 16.8232 58.1383 16.8691 57.9819 16.9607C57.8256 17.0469 57.7146 17.1978 57.649 17.4134C57.5834 17.629 57.5506 17.9281 57.5506 18.3107C57.5506 18.6934 57.5834 18.9925 57.649 19.2081C57.7146 19.4236 57.8256 19.5772 57.9819 19.6689C58.1383 19.7551 58.3502 19.7982 58.6175 19.7982C58.8849 19.7982 59.0942 19.7551 59.2455 19.6689C59.4019 19.5772 59.5129 19.4236 59.5785 19.2081C59.644 18.9925 59.6768 18.6934 59.6768 18.3107C59.6768 17.9281 59.644 17.629 59.5785 17.4134C59.5129 17.1978 59.4019 17.0469 59.2455 16.9607C59.0942 16.8691 58.8849 16.8232 58.6175 16.8232Z" fill="white"/>
<path d="M61.8582 16.3382V20.2752H61.2226V16.3382H61.8582ZM63.8633 17.9227V18.4482H61.8128V17.9227H63.8633ZM64.4308 16.3382V20.2752H63.7952V16.3382H64.4308Z" fill="white"/>
<path d="M66.1108 16.3382V20.2752H65.4752V16.3382H66.1108ZM68.1159 17.9227V18.4482H66.0654V17.9227H68.1159ZM68.6834 16.3382V20.2752H68.0478V16.3382H68.6834Z" fill="white"/>
<path d="M71.4756 16.2412C71.748 16.2412 71.9776 16.2816 72.1642 16.3624C72.3508 16.4379 72.4921 16.5672 72.5879 16.7505C72.6838 16.9337 72.7317 17.1843 72.7317 17.5023V20.2752H72.2247L72.1264 19.4183L72.0885 19.3293V17.5023C72.0835 17.2598 72.0305 17.0873 71.9296 16.9849C71.8287 16.8771 71.632 16.8232 71.3394 16.8232C71.1427 16.8232 70.8981 16.834 70.6055 16.8556C70.318 16.8771 70.033 16.9014 69.7505 16.9283L69.6899 16.419C69.8615 16.3867 70.0506 16.3571 70.2574 16.3301C70.4643 16.3032 70.6736 16.2816 70.8855 16.2654C71.0973 16.2493 71.294 16.2412 71.4756 16.2412ZM72.429 17.8499L72.4215 18.3673L70.666 18.3754C70.4895 18.3808 70.3634 18.432 70.2877 18.529C70.2171 18.6206 70.1818 18.75 70.1818 18.917V19.1677C70.1818 19.3724 70.2272 19.5234 70.318 19.6204C70.4138 19.712 70.5601 19.7578 70.7568 19.7578C70.8981 19.7578 71.057 19.7308 71.2335 19.677C71.4151 19.6177 71.5967 19.5287 71.7783 19.4102C71.9599 19.2916 72.1264 19.1407 72.2777 18.9575V19.4668C72.2272 19.5422 72.1491 19.6311 72.0431 19.7335C71.9422 19.8306 71.8187 19.9276 71.6724 20.0246C71.5311 20.1162 71.3722 20.1943 71.1957 20.259C71.0191 20.3183 70.83 20.3479 70.6282 20.3479C70.4113 20.3479 70.2196 20.3075 70.0531 20.2267C69.8867 20.1404 69.758 20.0165 69.6672 19.8548C69.5764 19.6877 69.531 19.4856 69.531 19.2485V18.82C69.531 18.5128 69.6193 18.2757 69.7959 18.1086C69.9775 17.9362 70.2297 17.8499 70.5525 17.8499H72.429Z" fill="white"/>
<path d="M75.0376 16.2978C75.3151 16.2978 75.5446 16.3005 75.7262 16.3059C75.9078 16.3059 76.0692 16.3112 76.2104 16.322C76.3567 16.3274 76.508 16.3382 76.6644 16.3544L76.5736 16.8798C76.5181 16.8691 76.3517 16.861 76.0742 16.8556C75.8018 16.8502 75.4613 16.8475 75.0528 16.8475C74.7451 16.8475 74.5408 16.9041 74.4399 17.0173C74.344 17.1251 74.2961 17.3056 74.2961 17.5589C74.2961 17.823 74.3465 18.0143 74.4474 18.1329C74.5534 18.2461 74.7627 18.3026 75.0755 18.3026H76.5812L76.5963 18.8119C76.5408 18.8119 76.4475 18.8146 76.3164 18.82C76.1852 18.82 76.0137 18.82 75.8018 18.82C75.59 18.82 75.3378 18.82 75.0452 18.82C74.8686 18.82 74.7249 18.8551 74.6139 18.9251C74.508 18.9952 74.4373 19.0949 74.402 19.2242L74.1221 20.2752H73.4562L73.7892 19.0949C73.8245 18.9817 73.8799 18.8901 73.9556 18.82C74.0363 18.75 74.1246 18.6988 74.2204 18.6664C74.3213 18.6287 74.4172 18.6045 74.508 18.5937V18.5613C74.3062 18.529 74.1423 18.467 74.0161 18.3754C73.8951 18.2838 73.8068 18.1625 73.7513 18.0116C73.6958 17.8553 73.6681 17.6721 73.6681 17.4619C73.6681 17.2787 73.6883 17.1143 73.7286 16.9688C73.774 16.8232 73.8497 16.702 73.9556 16.605C74.0615 16.5026 74.2028 16.4271 74.3793 16.3786C74.5559 16.3247 74.7753 16.2978 75.0376 16.2978ZM76.6644 16.3544V20.2752H76.0364V16.3544H76.6644Z" fill="white"/>
<path d="M80.8231 16.3382V20.2752H80.18V16.3382H80.8231ZM82.1548 16.3382V16.9041H78.8407V16.3382H82.1548Z" fill="white"/>
<path d="M84.3069 16.2412C84.7306 16.2412 85.0686 16.3086 85.3208 16.4433C85.573 16.578 85.7546 16.799 85.8656 17.1062C85.9816 17.408 86.0396 17.8095 86.0396 18.3107C86.0396 18.8119 85.9816 19.2162 85.8656 19.5234C85.7546 19.8252 85.573 20.0434 85.3208 20.1782C85.0686 20.3129 84.7306 20.3803 84.3069 20.3803C83.8832 20.3803 83.5427 20.3129 83.2854 20.1782C83.0332 20.0434 82.8491 19.8252 82.7331 19.5234C82.6221 19.2162 82.5666 18.8119 82.5666 18.3107C82.5666 17.8095 82.6221 17.408 82.7331 17.1062C82.8491 16.799 83.0332 16.578 83.2854 16.4433C83.5427 16.3086 83.8832 16.2412 84.3069 16.2412ZM84.3069 16.8232C84.0396 16.8232 83.8277 16.8691 83.6713 16.9607C83.515 17.0469 83.404 17.1978 83.3384 17.4134C83.2728 17.629 83.24 17.9281 83.24 18.3107C83.24 18.6934 83.2728 18.9925 83.3384 19.2081C83.404 19.4236 83.515 19.5772 83.6713 19.6689C83.8277 19.7551 84.0396 19.7982 84.3069 19.7982C84.5743 19.7982 84.7836 19.7551 84.9349 19.6689C85.0913 19.5772 85.2023 19.4236 85.2679 19.2081C85.3334 18.9925 85.3662 18.6934 85.3662 18.3107C85.3662 17.9281 85.3334 17.629 85.2679 17.4134C85.2023 17.1978 85.0913 17.0469 84.9349 16.9607C84.7836 16.8691 84.5743 16.8232 84.3069 16.8232Z" fill="white"/>
<path d="M89.023 16.2412C89.477 16.2412 89.8024 16.419 89.9991 16.7747C90.1958 17.1251 90.2942 17.6424 90.2942 18.3269C90.2942 18.8335 90.2438 19.2377 90.1429 19.5395C90.042 19.8359 89.8881 20.0488 89.6813 20.1782C89.4745 20.3075 89.2147 20.3722 88.902 20.3722C88.6598 20.3722 88.4202 20.3372 88.1831 20.2671C87.9461 20.197 87.7191 20.0892 87.5022 19.9437L87.54 19.5314C87.7771 19.6015 87.9839 19.6608 88.1604 19.7093C88.342 19.7524 88.5337 19.774 88.7355 19.774C88.9524 19.774 89.1239 19.7335 89.25 19.6527C89.3812 19.5719 89.477 19.4263 89.5376 19.2162C89.5981 19.006 89.6283 18.7095 89.6283 18.3269C89.6283 17.955 89.6006 17.6613 89.5451 17.4457C89.4947 17.2301 89.4089 17.0765 89.2879 16.9849C89.1718 16.8879 89.0155 16.8394 88.8187 16.8394C88.617 16.8394 88.4177 16.8906 88.221 16.993C88.0243 17.0954 87.7947 17.2517 87.5324 17.4619L87.4643 17.0011C87.6005 16.8448 87.7544 16.7101 87.9259 16.5969C88.0974 16.4837 88.2765 16.3975 88.4631 16.3382C88.6548 16.2735 88.8414 16.2412 89.023 16.2412ZM87.4416 16.3382L87.5173 17.1547L87.5551 17.2598V19.782L87.5249 19.8791C87.54 20.03 87.5501 20.1755 87.5551 20.3156C87.5602 20.4557 87.5602 20.6039 87.5551 20.7602V21.9001H86.9195V16.3382H87.4416Z" fill="white"/>
<path d="M91.974 16.322C92.2969 16.322 92.6222 16.3247 92.9501 16.3301C93.283 16.3355 93.6008 16.3544 93.9035 16.3867L93.8808 16.8717H92.2388C92.0825 16.8717 91.969 16.9095 91.8984 16.9849C91.8277 17.0604 91.7924 17.1843 91.7924 17.3568V20.2752H91.1568V17.1789C91.1568 16.8987 91.2249 16.6858 91.3611 16.5403C91.5024 16.3948 91.7067 16.322 91.974 16.322Z" fill="white"/>
<path d="M96.0155 16.2412C96.4392 16.2412 96.7772 16.3086 97.0294 16.4433C97.2816 16.578 97.4632 16.799 97.5742 17.1062C97.6902 17.408 97.7482 17.8095 97.7482 18.3107C97.7482 18.8119 97.6902 19.2162 97.5742 19.5234C97.4632 19.8252 97.2816 20.0434 97.0294 20.1782C96.7772 20.3129 96.4392 20.3803 96.0155 20.3803C95.5917 20.3803 95.2512 20.3129 94.994 20.1782C94.7418 20.0434 94.5577 19.8252 94.4416 19.5234C94.3307 19.2162 94.2752 18.8119 94.2752 18.3107C94.2752 17.8095 94.3307 17.408 94.4416 17.1062C94.5577 16.799 94.7418 16.578 94.994 16.4433C95.2512 16.3086 95.5917 16.2412 96.0155 16.2412ZM96.0155 16.8232C95.7481 16.8232 95.5363 16.8691 95.3799 16.9607C95.2235 17.0469 95.1125 17.1978 95.047 17.4134C94.9814 17.629 94.9486 17.9281 94.9486 18.3107C94.9486 18.6934 94.9814 18.9925 95.047 19.2081C95.1125 19.4236 95.2235 19.5772 95.3799 19.6689C95.5363 19.7551 95.7481 19.7982 96.0155 19.7982C96.2828 19.7982 96.4922 19.7551 96.6435 19.6689C96.7999 19.5772 96.9108 19.4236 96.9764 19.2081C97.042 18.9925 97.0748 18.6934 97.0748 18.3107C97.0748 17.9281 97.042 17.629 96.9764 17.4134C96.9108 17.1978 96.7999 17.0469 96.6435 16.9607C96.4922 16.8691 96.2828 16.8232 96.0155 16.8232Z" fill="white"/>
<path d="M100.119 16.2978C100.502 16.2978 100.805 16.3274 101.027 16.3867C101.254 16.446 101.418 16.5511 101.518 16.702C101.619 16.8529 101.67 17.0685 101.67 17.3487C101.67 17.629 101.607 17.8418 101.481 17.9874C101.36 18.1275 101.158 18.211 100.875 18.238V18.2622C101.218 18.2892 101.458 18.3916 101.594 18.5694C101.73 18.7419 101.798 18.9871 101.798 19.3051C101.798 19.5746 101.748 19.7847 101.647 19.9356C101.551 20.0812 101.395 20.1836 101.178 20.2428C100.966 20.3021 100.681 20.3318 100.323 20.3318C100.066 20.3318 99.8413 20.3291 99.6496 20.3237C99.4579 20.3237 99.2813 20.3183 99.1199 20.3075C98.9635 20.3021 98.7971 20.294 98.6205 20.2833L98.7113 19.774C98.8122 19.7794 98.9988 19.7847 99.2712 19.7901C99.5436 19.7901 99.864 19.7901 100.232 19.7901C100.459 19.7901 100.641 19.774 100.777 19.7416C100.913 19.7039 101.009 19.6392 101.064 19.5476C101.125 19.456 101.155 19.3266 101.155 19.1596C101.155 18.9063 101.085 18.7338 100.943 18.6422C100.802 18.5452 100.553 18.4967 100.194 18.4967H98.7038V18.0035H100.194C100.406 18.0035 100.575 17.9874 100.701 17.955C100.827 17.9227 100.918 17.8634 100.974 17.7772C101.029 17.6856 101.057 17.5616 101.057 17.4053C101.057 17.2544 101.027 17.1385 100.966 17.0577C100.906 16.9768 100.805 16.9203 100.663 16.8879C100.522 16.8556 100.333 16.8394 100.096 16.8394C99.8791 16.834 99.6824 16.8313 99.5058 16.8313C99.3343 16.8313 99.183 16.834 99.0518 16.8394C98.9207 16.8394 98.8072 16.8448 98.7113 16.8556L98.6205 16.3463C98.7769 16.3301 98.9257 16.3193 99.0669 16.3139C99.2082 16.3086 99.362 16.3059 99.5285 16.3059C99.695 16.3005 99.8917 16.2978 100.119 16.2978ZM99.2258 16.3463V20.2833H98.6205V16.3463H99.2258Z" fill="white"/>
<path d="M104.407 16.2412C104.679 16.2412 104.909 16.2816 105.095 16.3624C105.282 16.4379 105.423 16.5672 105.519 16.7505C105.615 16.9337 105.663 17.1843 105.663 17.5023V20.2752H105.156L105.057 19.4183L105.02 19.3293V17.5023C105.015 17.2598 104.962 17.0873 104.861 16.9849C104.76 16.8771 104.563 16.8232 104.271 16.8232C104.074 16.8232 103.829 16.834 103.537 16.8556C103.249 16.8771 102.964 16.9014 102.682 16.9283L102.621 16.419C102.793 16.3867 102.982 16.3571 103.188 16.3301C103.395 16.3032 103.605 16.2816 103.817 16.2654C104.028 16.2493 104.225 16.2412 104.407 16.2412ZM105.36 17.8499L105.353 18.3673L103.597 18.3754C103.421 18.3808 103.294 18.432 103.219 18.529C103.148 18.6206 103.113 18.75 103.113 18.917V19.1677C103.113 19.3724 103.158 19.5234 103.249 19.6204C103.345 19.712 103.491 19.7578 103.688 19.7578C103.829 19.7578 103.988 19.7308 104.165 19.677C104.346 19.6177 104.528 19.5287 104.709 19.4102C104.891 19.2916 105.057 19.1407 105.209 18.9575V19.4668C105.158 19.5422 105.08 19.6311 104.974 19.7335C104.873 19.8306 104.75 19.9276 104.603 20.0246C104.462 20.1162 104.303 20.1943 104.127 20.259C103.95 20.3183 103.761 20.3479 103.559 20.3479C103.342 20.3479 103.151 20.3075 102.984 20.2267C102.818 20.1404 102.689 20.0165 102.598 19.8548C102.508 19.6877 102.462 19.4856 102.462 19.2485V18.82C102.462 18.5128 102.55 18.2757 102.727 18.1086C102.909 17.9362 103.161 17.8499 103.484 17.8499H105.36Z" fill="white"/>
<path d="M107.969 16.2978C108.246 16.2978 108.476 16.3005 108.657 16.3059C108.839 16.3059 109 16.3112 109.141 16.322C109.288 16.3274 109.439 16.3382 109.595 16.3544L109.505 16.8798C109.449 16.8691 109.283 16.861 109.005 16.8556C108.733 16.8502 108.392 16.8475 107.984 16.8475C107.676 16.8475 107.472 16.9041 107.371 17.0173C107.275 17.1251 107.227 17.3056 107.227 17.5589C107.227 17.823 107.278 18.0143 107.378 18.1329C107.484 18.2461 107.694 18.3026 108.007 18.3026H109.512L109.527 18.8119C109.472 18.8119 109.379 18.8146 109.247 18.82C109.116 18.82 108.945 18.82 108.733 18.82C108.521 18.82 108.269 18.82 107.976 18.82C107.8 18.82 107.656 18.8551 107.545 18.9251C107.439 18.9952 107.368 19.0949 107.333 19.2242L107.053 20.2752H106.387L106.72 19.0949C106.756 18.9817 106.811 18.8901 106.887 18.82C106.967 18.75 107.056 18.6988 107.151 18.6664C107.252 18.6287 107.348 18.6045 107.439 18.5937V18.5613C107.237 18.529 107.073 18.467 106.947 18.3754C106.826 18.2838 106.738 18.1625 106.682 18.0116C106.627 17.8553 106.599 17.6721 106.599 17.4619C106.599 17.2787 106.619 17.1143 106.66 16.9688C106.705 16.8232 106.781 16.702 106.887 16.605C106.993 16.5026 107.134 16.4271 107.31 16.3786C107.487 16.3247 107.706 16.2978 107.969 16.2978ZM109.595 16.3544V20.2752H108.967V16.3544H109.595Z" fill="white"/>
<path d="M115.328 16.3382V20.2752H114.692V16.3382H115.328ZM112.801 16.3382V20.2752H112.173V16.3382H112.801ZM114.761 16.3382L114.753 16.896H112.763V16.3382H114.761Z" fill="white"/>
<path d="M119.325 16.3382V16.8798H117.978C117.821 16.8798 117.708 16.9176 117.637 16.993C117.572 17.0631 117.526 17.1897 117.501 17.373C117.476 17.6101 117.446 17.8526 117.41 18.1005C117.38 18.3485 117.345 18.5883 117.304 18.82C117.264 19.0518 117.211 19.2593 117.145 19.4425C117.085 19.6311 117.002 19.7901 116.896 19.9195C116.79 20.0488 116.661 20.1458 116.51 20.2105C116.364 20.2752 116.19 20.3102 115.988 20.3156L115.92 19.7901C116.056 19.7524 116.164 19.7093 116.245 19.6608C116.331 19.6123 116.396 19.553 116.442 19.4829C116.492 19.4129 116.535 19.332 116.57 19.2404C116.616 19.1111 116.656 18.9629 116.691 18.7958C116.727 18.6287 116.757 18.4535 116.782 18.2703C116.807 18.0871 116.828 17.9092 116.843 17.7368C116.863 17.5589 116.881 17.3999 116.896 17.2598C116.931 16.958 117.022 16.7289 117.168 16.5726C117.319 16.4163 117.549 16.3382 117.857 16.3382H119.325ZM119.423 16.3382V20.2752H118.78V16.3382H119.423Z" fill="white"/>
<path d="M122.037 16.2412C122.461 16.2412 122.799 16.3086 123.051 16.4433C123.304 16.578 123.485 16.799 123.596 17.1062C123.712 17.408 123.77 17.8095 123.77 18.3107C123.77 18.8119 123.712 19.2162 123.596 19.5234C123.485 19.8252 123.304 20.0434 123.051 20.1782C122.799 20.3129 122.461 20.3803 122.037 20.3803C121.614 20.3803 121.273 20.3129 121.016 20.1782C120.764 20.0434 120.58 19.8252 120.464 19.5234C120.353 19.2162 120.297 18.8119 120.297 18.3107C120.297 17.8095 120.353 17.408 120.464 17.1062C120.58 16.799 120.764 16.578 121.016 16.4433C121.273 16.3086 121.614 16.2412 122.037 16.2412ZM122.037 16.8232C121.77 16.8232 121.558 16.8691 121.402 16.9607C121.245 17.0469 121.134 17.1978 121.069 17.4134C121.003 17.629 120.971 17.9281 120.971 18.3107C120.971 18.6934 121.003 18.9925 121.069 19.2081C121.134 19.4236 121.245 19.5772 121.402 19.6689C121.558 19.7551 121.77 19.7982 122.037 19.7982C122.305 19.7982 122.514 19.7551 122.665 19.6689C122.822 19.5772 122.933 19.4236 122.998 19.2081C123.064 18.9925 123.097 18.6934 123.097 18.3107C123.097 17.9281 123.064 17.629 122.998 17.4134C122.933 17.1978 122.822 17.0469 122.665 16.9607C122.514 16.8691 122.305 16.8232 122.037 16.8232Z" fill="white"/>
<path d="M125.27 16.3382V20.2752H124.65V16.3382H125.27ZM130.052 19.7255V20.2752H125.217V19.7255H130.052ZM127.382 16.3382V20.2752H126.799V16.3382H127.382ZM129.546 16.3382V20.2752H128.925V16.3382H129.546ZM130.052 20.2348V21.4393H129.621L129.553 20.2348H130.052Z" fill="white"/>
<path d="M132.527 16.2412C132.8 16.2412 133.029 16.2816 133.216 16.3624C133.402 16.4379 133.544 16.5672 133.639 16.7505C133.735 16.9337 133.783 17.1843 133.783 17.5023V20.2752H133.276L133.178 19.4183L133.14 19.3293V17.5023C133.135 17.2598 133.082 17.0873 132.981 16.9849C132.88 16.8771 132.684 16.8232 132.391 16.8232C132.194 16.8232 131.95 16.834 131.657 16.8556C131.369 16.8771 131.084 16.9014 130.802 16.9283L130.741 16.419C130.913 16.3867 131.102 16.3571 131.309 16.3301C131.516 16.3032 131.725 16.2816 131.937 16.2654C132.149 16.2493 132.346 16.2412 132.527 16.2412ZM133.481 17.8499L133.473 18.3673L131.718 18.3754C131.541 18.3808 131.415 18.432 131.339 18.529C131.269 18.6206 131.233 18.75 131.233 18.917V19.1677C131.233 19.3724 131.279 19.5234 131.369 19.6204C131.465 19.712 131.612 19.7578 131.808 19.7578C131.95 19.7578 132.108 19.7308 132.285 19.677C132.467 19.6177 132.648 19.5287 132.83 19.4102C133.011 19.2916 133.178 19.1407 133.329 18.9575V19.4668C133.279 19.5422 133.201 19.6311 133.095 19.7335C132.994 19.8306 132.87 19.9276 132.724 20.0246C132.583 20.1162 132.424 20.1943 132.247 20.259C132.071 20.3183 131.881 20.3479 131.68 20.3479C131.463 20.3479 131.271 20.3075 131.105 20.2267C130.938 20.1404 130.81 20.0165 130.719 19.8548C130.628 19.6877 130.583 19.4856 130.583 19.2485V18.82C130.583 18.5128 130.671 18.2757 130.847 18.1086C131.029 17.9362 131.281 17.8499 131.604 17.8499H133.481Z" fill="white"/>
<path d="M137.761 16.3382V16.8798H136.445C136.162 16.8798 136.008 17.0388 135.983 17.3568C135.958 17.7448 135.913 18.1086 135.847 18.4482C135.781 18.7877 135.688 19.1084 135.567 19.4102C135.451 19.7066 135.292 19.9949 135.09 20.2752H134.553C134.75 19.9626 134.904 19.6419 135.015 19.3132C135.131 18.979 135.219 18.6395 135.279 18.2946C135.34 17.9442 135.38 17.5939 135.401 17.2436C135.421 16.9418 135.506 16.7155 135.658 16.5645C135.814 16.4136 136.041 16.3382 136.339 16.3382H137.761ZM134.901 20.2348L134.841 21.4393H134.424V20.2348H134.901ZM138.359 19.7255V20.2752H134.424V19.7255H138.359ZM138.359 20.2348V21.4393H137.935L137.875 20.2348H138.359ZM137.852 16.3382V20.2752H137.239V16.3382H137.852Z" fill="white"/>
<path d="M142.187 16.3382C142.106 16.5699 142.028 16.7828 141.952 16.9768C141.882 17.1655 141.809 17.3325 141.733 17.4781C141.662 17.6236 141.582 17.7475 141.491 17.8499C141.405 17.9523 141.304 18.0359 141.188 18.1005C141.072 18.1598 140.936 18.1976 140.78 18.2137V18.238C140.946 18.2541 141.09 18.2919 141.211 18.3511C141.332 18.4104 141.438 18.494 141.529 18.6018C141.625 18.7042 141.71 18.8335 141.786 18.9898C141.867 19.1461 141.947 19.332 142.028 19.5476C142.109 19.7578 142.197 20.0003 142.293 20.2752H141.62C141.529 20.0219 141.446 19.7982 141.37 19.6042C141.294 19.4048 141.219 19.235 141.143 19.0949C141.072 18.9548 140.994 18.8416 140.908 18.7554C140.823 18.6637 140.722 18.5991 140.606 18.5613C140.495 18.5182 140.364 18.4967 140.212 18.4967V17.9631C140.394 17.9631 140.548 17.9281 140.674 17.858C140.8 17.7826 140.908 17.6748 140.999 17.5346C141.095 17.3945 141.183 17.2248 141.264 17.0253C141.345 16.8259 141.43 16.5969 141.521 16.3382H142.187ZM139.736 16.3382V17.5104C139.736 17.629 139.728 17.7475 139.713 17.8661C139.698 17.9847 139.675 18.1005 139.645 18.2137C139.675 18.3269 139.698 18.4401 139.713 18.5533C139.728 18.6664 139.736 18.7742 139.736 18.8766V20.2752H139.092V16.3382H139.736ZM140.454 17.9631V18.4967H139.546V17.9631H140.454Z" fill="white"/>
<path d="M144.746 16.2412C145.018 16.2412 145.247 16.2816 145.434 16.3624C145.621 16.4379 145.762 16.5672 145.858 16.7505C145.954 16.9337 146.002 17.1843 146.002 17.5023V20.2752H145.495L145.396 19.4183L145.358 19.3293V17.5023C145.353 17.2598 145.3 17.0873 145.2 16.9849C145.099 16.8771 144.902 16.8232 144.609 16.8232C144.413 16.8232 144.168 16.834 143.875 16.8556C143.588 16.8771 143.303 16.9014 143.02 16.9283L142.96 16.419C143.131 16.3867 143.321 16.3571 143.527 16.3301C143.734 16.3032 143.943 16.2816 144.155 16.2654C144.367 16.2493 144.564 16.2412 144.746 16.2412ZM145.699 17.8499L145.691 18.3673L143.936 18.3754C143.759 18.3808 143.633 18.432 143.558 18.529C143.487 18.6206 143.452 18.75 143.452 18.917V19.1677C143.452 19.3724 143.497 19.5234 143.588 19.6204C143.684 19.712 143.83 19.7578 144.027 19.7578C144.168 19.7578 144.327 19.7308 144.503 19.677C144.685 19.6177 144.867 19.5287 145.048 19.4102C145.23 19.2916 145.396 19.1407 145.548 18.9575V19.4668C145.497 19.5422 145.419 19.6311 145.313 19.7335C145.212 19.8306 145.089 19.9276 144.942 20.0246C144.801 20.1162 144.642 20.1943 144.466 20.259C144.289 20.3183 144.1 20.3479 143.898 20.3479C143.681 20.3479 143.489 20.3075 143.323 20.2267C143.157 20.1404 143.028 20.0165 142.937 19.8548C142.846 19.6877 142.801 19.4856 142.801 19.2485V18.82C142.801 18.5128 142.889 18.2757 143.066 18.1086C143.247 17.9362 143.5 17.8499 143.822 17.8499H145.699Z" fill="white"/>
</svg>
