<svg width="13" height="13" viewBox="0 0 13 13" fill="none" xmlns="http://www.w3.org/2000/svg">
<path fill-rule="evenodd" clip-rule="evenodd" d="M4.92607 0.0095827C3.67227 0.0740209 2.45884 0.631772 1.53631 1.56765C0.787422 2.32743 0.277456 3.30423 0.0891908 4.3396C-0.337085 6.68378 0.791842 8.99549 2.89352 10.082C4.04687 10.6783 5.41866 10.8136 6.67729 10.4552C7.12592 10.3274 7.76579 10.0341 8.09149 9.80687L8.24167 9.70212L9.77878 11.2557C11.167 12.6588 11.3319 12.8171 11.481 12.8901C12.2568 13.2697 13.136 12.6106 12.9824 11.7646C12.9214 11.4287 12.9253 11.4334 11.2558 9.73978L9.71021 8.17194L9.91826 7.7556C10.2679 7.05587 10.4301 6.47181 10.4918 5.6896C10.6039 4.27163 10.1002 2.80656 9.13319 1.73756C8.64261 1.19522 8.10731 0.797739 7.45405 0.490678C7.06309 0.306926 6.9184 0.253881 6.55584 0.161373C6.01148 0.0224961 5.53612 -0.02176 4.92607 0.0095827ZM5.82801 1.77122C7.23807 2.00508 8.3826 3.09135 8.70778 4.50448C8.98095 5.69162 8.64365 6.93543 7.81059 7.81295C7.12415 8.53599 6.22921 8.92466 5.25148 8.9243C4.30749 8.92396 3.41871 8.54811 2.74451 7.86414C2.2456 7.35799 1.92306 6.74985 1.77151 6.02953C1.69224 5.65282 1.69272 5.00251 1.77252 4.62284C1.98043 3.634 2.52454 2.82844 3.35085 2.28618C3.77169 2.01 4.22377 1.84272 4.79904 1.75032C4.96677 1.72338 5.61942 1.73663 5.82801 1.77122Z" fill="#104781"/>
</svg>
