<svg width="15" height="10" viewBox="0 0 15 10" fill="none" xmlns="http://www.w3.org/2000/svg">
<path fill-rule="evenodd" clip-rule="evenodd" d="M1.08195 0.0260644C0.903404 0.0915409 0.782322 0.195554 0.463278 0.557564C0.179374 0.879744 0.112614 0.975142 0.0599631 1.13416C-0.0196439 1.37453 -0.0199666 1.56605 0.0588778 1.80974C0.118275 1.99341 0.267604 2.16744 3.58605 5.92067C6.15089 8.82158 7.08535 9.85857 7.18276 9.91199C7.38853 10.0249 7.61201 10.0293 7.81856 9.92451C7.97382 9.84575 8.3107 9.47334 11.4266 5.93615C13.8206 3.21847 14.8841 1.98943 14.9317 1.88555C14.9854 1.76828 15 1.68336 15 1.48792C15 1.13307 14.9356 1.01076 14.4872 0.51336C14.1634 0.154167 14.0971 0.0959479 13.9592 0.0496902C13.748 -0.0211543 13.6131 -0.0169461 13.41 0.0668214C13.2478 0.133723 13.1119 0.281641 10.373 3.37183L7.50568 6.60678L4.63857 3.37299C2.6515 1.13181 1.73541 0.120402 1.6541 0.0778888C1.52697 0.0114513 1.20209 -0.0179732 1.08195 0.0260644Z" fill="#104781"/>
</svg>
