<svg width="20" height="18" viewBox="0 0 20 18" fill="none" xmlns="http://www.w3.org/2000/svg">
<path fill-rule="evenodd" clip-rule="evenodd" d="M0.0410767 14.9613C0.260687 16.2493 1.21437 17.3722 2.44182 17.788C3.09968 18.0108 2.71156 17.9999 9.99831 17.9999C15.9495 17.9999 16.7155 17.9933 16.9836 17.9397C17.8569 17.765 18.5712 17.3554 19.1273 16.7106C19.389 16.4072 19.7198 15.8286 19.823 15.4939C19.9931 14.9417 20 14.8039 20 11.9437C20 9.41592 19.9948 9.20006 19.9317 9.07966C19.7392 8.71291 19.2213 8.67725 18.9675 9.01325C18.8879 9.11873 18.8863 9.16441 18.8651 11.9559C18.8413 15.1049 18.8524 14.9708 18.5702 15.5188C18.2594 16.1226 17.7009 16.5796 17.0113 16.7946L16.7378 16.8798H9.99831H3.25881L2.98532 16.7949C2.29797 16.5814 1.72091 16.1086 1.42086 15.5129C1.14409 14.9635 1.15518 15.101 1.13143 11.923C1.11139 9.24251 1.10537 9.04769 1.0395 8.95003C0.800823 8.59619 0.259749 8.62493 0.0649482 9.00178C0.0016164 9.12428 -0.00303288 9.33915 0.0011085 11.9437C0.00360895 13.4891 0.0215809 14.847 0.0410767 14.9613ZM5.84724 9.41119C6.00766 9.10086 6.4127 9.0086 6.70084 9.21671C6.78464 9.27723 7.4246 9.88392 8.12297 10.5649L9.39273 11.803L9.41226 6.09778C9.43121 0.56741 9.4341 0.388874 9.50642 0.272724C9.73998 -0.102343 10.2924 -0.0876865 10.4964 0.299L10.5844 0.465612L10.5844 6.16236V11.8591L11.9876 10.4958L13.3908 9.13242L13.5992 9.11746C13.7604 9.10584 13.8364 9.12004 13.9349 9.18014C14.1786 9.32887 14.2751 9.59747 14.177 9.85411C14.1308 9.97486 10.4273 13.6002 10.264 13.6845C10.0845 13.7772 9.83582 13.7543 9.66231 13.6289C9.5785 13.5684 8.69741 12.7269 7.70434 11.7589C5.66807 9.77411 5.66295 9.76765 5.84724 9.41119Z" fill="#104781"/>
</svg>
